<?xml version="1.0" encoding="utf-8"?>
<!-- Generator: Adobe Illustrator 24.2.1, SVG Export Plug-In . SVG Version: 6.00 Build 0)  -->
<svg version="1.1" id="Layer_1" xmlns="http://www.w3.org/2000/svg" xmlns:xlink="http://www.w3.org/1999/xlink" x="0px" y="0px"
	 viewBox="0 0 283.46 70.87" style="enable-background:new 0 0 283.46 70.87;" xml:space="preserve">
<style type="text/css">
	.st0{fill:#FFFFFF;}
</style>
<g>
	<path class="st0" d="M256.96,14.24h-5.79v23.7h5.79v-9.55l6.91,9.55h6.64l-9.04-12.36l8.87-11.34h-6.47l-6.91,9.14V14.24z
		 M242,14.24h-5.79v23.7H242V14.24z M227.03,14.24h-5.79v23.7h5.79V14.24z M204.55,19.19c1.42,0,2.1,0.85,2.1,2.1
		c0,1.29-0.71,2.2-2.03,2.2h-2.47v-4.3H204.55z M204.99,28.12c1.52,0,2.34,0.98,2.34,2.4c0,1.35-0.85,2.44-2.37,2.44h-2.81v-4.84
		H204.99z M213.29,30.87c0-2.44-0.98-4.37-3.32-5.35c1.63-0.91,2.57-2.88,2.57-4.91c0-4.06-2.88-6.37-7.69-6.37h-8.46v23.7h8.74
		C209.67,37.94,213.29,35.67,213.29,30.87z M165.31,19.22c1.59,0,2.51,1.08,2.51,2.67c0,1.63-0.88,2.78-2.57,2.78h-1.9v-5.45H165.31
		z M173.74,21.89c0-4.67-2.84-7.65-7.65-7.65h-8.53v23.7h5.79v-8.29h2.78C170.73,29.65,173.74,26.5,173.74,21.89z M138.57,38.35
		c6.26,0,9.89-4,9.89-9.55V14.24h-5.79V28.8c0,2.61-1.46,4.2-4.06,4.2c-2.57,0-4.13-1.59-4.13-4.16V14.24h-5.79v14.59
		C128.68,34.49,132.2,38.35,138.57,38.35z M110.53,19.22c2.1,0,2.84,0.95,2.84,2.51c0,1.63-0.98,2.61-2.57,2.61h-1.73v-5.11H110.53z
		 M119.3,21.52c0-4.71-2.71-7.28-8.29-7.28h-7.72v23.7h5.79v-8.77h1.76l4.23,8.77h6.4c-5.49-10.23-5.45-10.16-5.45-10.16
		C118.18,26.6,119.3,24.13,119.3,21.52z M85.07,19.22c2.1,0,2.84,0.95,2.84,2.51c0,1.63-0.98,2.61-2.57,2.61h-1.73v-5.11H85.07z
		 M93.84,21.52c0-4.71-2.71-7.28-8.29-7.28h-7.72v23.7h5.79v-8.77h1.76l4.23,8.77h6.4c-5.48-10.23-5.45-10.16-5.45-10.16
		C92.72,26.6,93.84,24.13,93.84,21.52z M58.83,38.35c6.26,0,9.89-4,9.89-9.55V14.24h-5.79V28.8c0,2.61-1.46,4.2-4.06,4.2
		c-2.57,0-4.13-1.59-4.13-4.16V14.24h-5.79v14.59C48.95,34.49,52.47,38.35,58.83,38.35z M29.14,36.01l5.21-13.61v15.54h5.55v-23.7
		h-7.52l-5.92,15l-5.89-15h-7.52v23.7h5.55V22.4l5.21,13.61H29.14z"/>
	<path class="st0" d="M102.34,56.46h1.38v-7.45h2.19v-1.24h-5.75v1.24h2.19V56.46z M92.29,51.69v-2.72h0.93
		c1.01,0,1.5,0.55,1.5,1.35c0,0.88-0.63,1.37-1.5,1.37H92.29z M90.91,56.46h1.38v-3.59h1.2l1.83,3.59h1.53l-2.11-3.9
		c0.88-0.36,1.42-1.23,1.42-2.24c0-1.45-1.04-2.56-2.91-2.56h-2.33V56.46z M84.08,52.77h-2.41l1.2-3.51L84.08,52.77z M84.47,53.93
		l0.89,2.53h1.39l-3.17-8.69h-1.43l-3.17,8.69h1.39l0.91-2.53H84.47z M65.59,54.51c-0.35,0.26-1.15,0.82-2.28,0.82
		c-1.86,0-3.08-1.42-3.08-3.22c0-1.8,1.25-3.22,3.07-3.22c1.02,0,1.81,0.48,2.19,0.77l0.41-1.22c-0.51-0.38-1.4-0.84-2.63-0.84
		c-2.55,0-4.46,1.95-4.46,4.51c0,2.56,1.84,4.51,4.47,4.51c1.34,0,2.3-0.57,2.73-0.91L65.59,54.51z M52.95,56.46h1.38v-8.69h-1.38
		V56.46z M44.22,56.46h4.42v-1.24H45.6v-7.45h-1.38V56.46z M35.55,55.27v-2.73h1.25c0.86,0,1.53,0.43,1.53,1.37
		c0,0.91-0.66,1.37-1.53,1.37H35.55z M35.55,51.41v-2.43h1.22c0.79,0,1.29,0.46,1.29,1.19c0,0.74-0.53,1.24-1.28,1.24H35.55z
		 M34.17,56.46h2.77c1.55,0,2.82-1.01,2.82-2.56c0-0.93-0.52-1.64-1.38-2c0.66-0.36,1.09-1.04,1.09-1.88c0-1.34-1.06-2.26-2.74-2.26
		h-2.56V56.46z M25.92,56.62c2.11,0,3.35-1.39,3.35-3.37v-5.49h-1.37v5.48c0,1.28-0.71,2.1-1.99,2.1c-1.29,0-1.99-0.81-1.99-2.09
		v-5.49h-1.38v5.5C22.56,55.28,23.75,56.62,25.92,56.62z M14.34,51.82v-2.84h0.99c0.89,0,1.52,0.55,1.52,1.4
		c0,0.87-0.62,1.44-1.53,1.44H14.34z M12.96,56.46h1.38v-3.44h1.16c1.58,0,2.77-1.11,2.77-2.65c0-1.56-1.14-2.61-2.78-2.61h-2.52
		V56.46z"/>
</g>
</svg>
