<?xml version="1.0" encoding="utf-8"?>
<!-- Generator: Adobe Illustrator 24.2.1, SVG Export Plug-In . SVG Version: 6.00 Build 0)  -->
<svg version="1.1" id="Layer_1" xmlns="http://www.w3.org/2000/svg" xmlns:xlink="http://www.w3.org/1999/xlink" x="0px" y="0px"
	 viewBox="0 0 270.25 65" style="enable-background:new 0 0 270.25 65;" xml:space="preserve">
<style type="text/css">
	.st0{fill:#FFFFFF;}
</style>
<g>
	<path class="st0" d="M38.78,39.09c-1.08,0-2.03-0.19-2.86-0.56c-0.83-0.37-1.48-0.9-1.95-1.6c-0.48-0.69-0.72-1.54-0.74-2.53h2.83
		c0.03,0.69,0.28,1.26,0.75,1.73c0.47,0.47,1.12,0.7,1.94,0.7c0.71,0,1.28-0.17,1.7-0.51c0.42-0.34,0.63-0.8,0.63-1.38
		c0-0.6-0.19-1.07-0.56-1.41c-0.37-0.34-0.86-0.61-1.48-0.82c-0.62-0.21-1.27-0.43-1.97-0.67c-1.13-0.39-2-0.9-2.59-1.51
		s-0.89-1.43-0.89-2.46c-0.01-0.87,0.19-1.61,0.62-2.24c0.43-0.62,1.01-1.11,1.75-1.45c0.74-0.34,1.6-0.51,2.56-0.51
		c0.98,0,1.84,0.18,2.59,0.53c0.75,0.35,1.34,0.84,1.76,1.47c0.43,0.63,0.65,1.38,0.68,2.25h-2.88c-0.01-0.52-0.21-0.98-0.6-1.38
		c-0.38-0.4-0.92-0.6-1.61-0.6c-0.59-0.01-1.08,0.13-1.48,0.43s-0.6,0.74-0.6,1.31c0,0.49,0.15,0.88,0.46,1.17
		c0.31,0.29,0.73,0.53,1.26,0.72s1.14,0.41,1.83,0.63c0.73,0.25,1.39,0.55,2,0.88c0.6,0.34,1.08,0.78,1.45,1.33
		c0.36,0.55,0.55,1.26,0.55,2.13c0,0.77-0.2,1.48-0.59,2.14s-0.97,1.19-1.74,1.58C40.85,38.89,39.9,39.09,38.78,39.09z"/>
	<path class="st0" d="M49.53,38.84V26.3h-4.28v-2.16h11.28v2.16h-4.31v12.54H49.53z"/>
	<path class="st0" d="M56.02,38.84l5.38-14.7h3.02l5.38,14.7h-2.86l-1.18-3.4h-5.73l-1.2,3.4H56.02z M60.77,33.33h4.26l-2.14-6.11
		L60.77,33.33z"/>
	<path class="st0" d="M71.69,38.84v-14.7h5.4c1.18,0,2.15,0.2,2.91,0.6c0.76,0.4,1.33,0.94,1.71,1.62c0.38,0.68,0.57,1.43,0.57,2.26
		c0,0.9-0.23,1.71-0.7,2.46c-0.47,0.74-1.2,1.28-2.19,1.62l3.05,6.15h-3.09l-2.73-5.8h-2.23v5.8H71.69z M74.38,31.07h2.54
		c0.9,0,1.55-0.22,1.97-0.65c0.42-0.43,0.63-1.01,0.63-1.72c0-0.7-0.21-1.26-0.62-1.68c-0.41-0.42-1.08-0.63-2.01-0.63h-2.52V31.07z
		"/>
	<path class="st0" d="M88.19,38.84V26.3h-4.28v-2.16h11.28v2.16h-4.31v12.54H88.19z"/>
	<path class="st0" d="M101.23,38.84l5.38-14.7h3.02l5.38,14.7h-2.86l-1.18-3.4h-5.73l-1.2,3.4H101.23z M105.98,33.33h4.26
		l-2.14-6.11L105.98,33.33z"/>
	<path class="st0" d="M116.9,38.84v-14.7h5.4c1.18,0,2.15,0.2,2.91,0.6c0.76,0.4,1.33,0.94,1.71,1.62c0.38,0.68,0.57,1.43,0.57,2.26
		c0,0.9-0.23,1.71-0.7,2.46c-0.47,0.74-1.2,1.28-2.19,1.62l3.05,6.15h-3.09l-2.73-5.8h-2.23v5.8H116.9z M119.59,31.07h2.54
		c0.9,0,1.55-0.22,1.97-0.65c0.42-0.43,0.63-1.01,0.63-1.72c0-0.7-0.21-1.26-0.62-1.68c-0.41-0.42-1.08-0.63-2.01-0.63h-2.52V31.07z
		"/>
	<path class="st0" d="M134.04,38.84l5.38-14.7h3.02l5.38,14.7h-2.86l-1.18-3.4h-5.73l-1.2,3.4H134.04z M138.78,33.33h4.26
		l-2.14-6.11L138.78,33.33z"/>
	<path class="st0" d="M149.7,38.84v-14.7h5.4c1.18,0,2.15,0.2,2.91,0.6c0.76,0.4,1.33,0.94,1.71,1.62c0.38,0.68,0.57,1.43,0.57,2.26
		c0,0.9-0.23,1.71-0.7,2.46c-0.47,0.74-1.2,1.28-2.19,1.62l3.04,6.15h-3.09l-2.73-5.8h-2.23v5.8H149.7z M152.39,31.07h2.54
		c0.9,0,1.55-0.22,1.97-0.65c0.42-0.43,0.63-1.01,0.63-1.72c0-0.7-0.21-1.26-0.62-1.68c-0.41-0.42-1.08-0.63-2.01-0.63h-2.52V31.07z
		"/>
	<path class="st0" d="M166.21,38.84V26.3h-4.28v-2.16h11.28v2.16h-4.3v12.54H166.21z"/>
	<path class="st0" d="M178.18,38.84l-3.88-14.7h2.88l2.65,11.7l3.11-11.7h2.96l3.02,11.7l2.65-11.7h2.9l-3.99,14.7h-3.19l-2.92-10.9
		l-3,10.9H178.18z"/>
	<path class="st0" d="M202.66,39.09c-1.47,0-2.75-0.32-3.85-0.97c-1.1-0.64-1.96-1.54-2.58-2.68c-0.62-1.14-0.93-2.46-0.93-3.96
		c0-1.5,0.31-2.82,0.93-3.96c0.62-1.14,1.48-2.03,2.58-2.68c1.1-0.64,2.38-0.97,3.85-0.97c1.46,0,2.74,0.32,3.84,0.97
		c1.11,0.64,1.97,1.54,2.58,2.68c0.62,1.14,0.92,2.46,0.92,3.96c0,1.5-0.31,2.82-0.92,3.96c-0.62,1.14-1.48,2.03-2.58,2.68
		C205.4,38.77,204.12,39.09,202.66,39.09z M202.66,36.67c1.4,0,2.52-0.46,3.35-1.39s1.25-2.19,1.25-3.8c0-1.61-0.42-2.88-1.25-3.8
		c-0.83-0.92-1.95-1.39-3.35-1.39c-1.4,0-2.52,0.46-3.36,1.39c-0.84,0.92-1.26,2.19-1.26,3.8c0,1.61,0.42,2.88,1.26,3.8
		S201.26,36.67,202.66,36.67z"/>
	<path class="st0" d="M212.38,38.84v-14.7h5.4c1.18,0,2.15,0.2,2.91,0.6c0.76,0.4,1.33,0.94,1.71,1.62
		c0.38,0.68,0.57,1.43,0.57,2.26c0,0.9-0.23,1.71-0.7,2.46c-0.47,0.74-1.2,1.28-2.19,1.62l3.04,6.15h-3.09l-2.73-5.8h-2.23v5.8
		H212.38z M215.07,31.07h2.54c0.9,0,1.55-0.22,1.97-0.65c0.42-0.43,0.63-1.01,0.63-1.72c0-0.7-0.21-1.26-0.62-1.68
		c-0.41-0.42-1.08-0.63-2.01-0.63h-2.52V31.07z"/>
	<path class="st0" d="M225.47,38.84v-14.7h2.69v5.94l5.44-5.94h3.32l-5.42,5.84l5.56,8.86h-3.3l-4.2-6.8l-1.41,1.53v5.27H225.47z"/>
</g>
<g>
	<path class="st0" d="M235.57,13.63c5.91,0,10.72,4.81,10.72,10.72v15.35c0,5.91-4.81,10.72-10.72,10.72H34.62
		c-5.91,0-10.72-4.81-10.72-10.72V24.36c0-5.91,4.81-10.72,10.72-10.72H235.57 M235.57,10.63H34.62c-7.58,0-13.72,6.14-13.72,13.72
		v15.35c0,7.58,6.14,13.72,13.72,13.72h200.94c7.58,0,13.72-6.14,13.72-13.72V24.36C249.29,16.78,243.14,10.63,235.57,10.63
		L235.57,10.63z"/>
</g>
</svg>
