<?xml version="1.0" encoding="utf-8"?>
<!-- Generator: Adobe Illustrator 24.2.1, SVG Export Plug-In . SVG Version: 6.00 Build 0)  -->
<svg version="1.1" id="Layer_1" xmlns="http://www.w3.org/2000/svg" xmlns:xlink="http://www.w3.org/1999/xlink" x="0px" y="0px"
	 viewBox="0 0 852.55 452.61" style="enable-background:new 0 0 852.55 452.61;" xml:space="preserve">
<style type="text/css">
	.st0{fill:#FFFFFF;}
	.st1{fill:url(#SVGID_1_);}
	.st2{fill:none;stroke:#FFFFFF;stroke-width:3;stroke-miterlimit:10;}
</style>
<g>
	<path class="st0" d="M350.85,136.06H365v5.97h-14.14v26.49c0,5.48,3.09,7.57,7.57,7.57c2.29,0,4.18-0.8,6.57-1.99v5.97
		c-2.39,1.19-4.88,1.99-8.07,1.99c-7.27,0-12.85-3.49-12.85-12.65v-27.38h-6.18v-5.97h6.18v-9.16l6.77-3.88L350.85,136.06z
		 M691.71,116.85v64.23h-6.77v-7.87c-3.88,5.38-9.96,8.86-16.73,8.86c-11.85,0-21.42-10.56-21.42-23.5c0-13.04,9.56-23.5,21.42-23.5
		c6.77,0,12.75,3.49,16.73,8.86v-23.1L691.71,116.85z M685.93,158.57c0-9.66-7.27-17.53-16.14-17.53c-8.96,0-16.14,7.87-16.14,17.53
		c0,9.66,7.27,17.53,16.14,17.53C678.66,176.09,685.93,168.23,685.93,158.57z M418.09,158.57c0,13.04-10.46,23.5-23.41,23.5
		c-12.95,0-23.41-10.56-23.41-23.5c0-13.04,10.46-23.5,23.41-23.5C407.63,134.97,418.09,145.52,418.09,158.57z M411.32,158.57
		c0-9.66-7.47-17.53-16.63-17.53c-9.16,0-16.63,7.87-16.63,17.53c0,9.66,7.47,17.53,16.63,17.53
		C403.85,176.09,411.32,168.23,411.32,158.57z M310.71,146.02c-13.94-2.99-17.63-6.37-17.63-12.35c-0.2-5.38,5.18-10.85,13.94-10.85
		c5.68,0,10.86,1.89,15.94,5.48l6.47-3.78c-6.47-5.18-13.05-7.77-22.31-7.77c-13.05,0-21.22,8.46-20.82,17.53
		c0,10.46,6.67,15.14,21.32,18.32c13.35,2.79,16.93,6.27,16.93,12.05c0,6.47-6.08,11.35-14.64,11.35c-7.97,0-13.94-2.79-19.92-7.77
		l-6.28,3.68c7.57,6.77,15.84,10.16,25.9,10.16c12.55,0,21.61-6.97,21.61-18.12C331.33,154.39,324.86,149.11,310.71,146.02
		L310.71,146.02z M515.9,136.06h-8.86l-23.71,24.3v-43.51l-6.77,3.88v60.34h6.77v-11.65l9.06-9.26l16.14,21.01h8.07l-19.62-25.59
		L515.9,136.06z M585.03,153.99v27.08h-6.77v-7.87c-2.59,4.48-8.37,8.86-16.34,8.86c-8.37,0-16.83-4.78-16.83-14.24
		c0-9.56,7.87-14.64,19.32-14.64c5.78,0,9.86,0.8,13.85,1.89v-1.49c0-8.07-4.98-12.55-13.45-12.55c-5.28,0-9.46,1.69-13.65,3.58
		l-1.99-5.48c4.98-2.29,9.86-3.78,16.44-3.78C577.86,135.37,585.03,142.14,585.03,153.99z M578.26,160.16
		c-3.29-1-7.67-1.89-13.15-1.89c-8.47,0-13.15,3.68-13.15,9.46c0,5.78,5.28,9.16,11.36,9.16c7.77,0,15.04-6.07,15.04-12.25v-4.48
		L578.26,160.16z M527.06,181.07h6.77v-64.23l-6.77,3.88V181.07z M619.29,135.07c-7.77,0-12.45,3.88-15.44,8.76v-7.87h-6.67v45.11
		h6.77v-25.79c0-8.46,5.68-14.24,13.45-14.24c7.97,0,12.45,5.38,12.45,13.74v26.29h6.77v-27.98
		C636.53,142.34,630.15,135.07,619.29,135.07L619.29,135.07z M448.97,176.09c-9.16,0-16.63-7.87-16.63-17.53
		c0-9.66,7.47-17.53,16.63-17.53c5.08,0,9.56,2.39,12.55,6.07l5.68-3.29c-4.28-5.38-10.86-8.86-18.23-8.86
		c-12.95,0-23.41,10.56-23.41,23.5c0,13.04,10.46,23.5,23.41,23.5c7.37,0,13.94-3.49,18.23-8.86l-5.68-3.29
		C458.53,173.7,454.05,176.09,448.97,176.09z M223.96,156.78l29.88,9.66c-0.5-1.49-1-2.99-1.59-4.48l-26.99-8.76l23.61,2.49
		c-1-1.39-1.99-2.79-3.09-4.08l-20.12-2.09l16.34-1.69c-1.29-1.19-2.69-2.29-4.08-3.39l-12.65,1.29l9.86-3.19
		c-1.39-0.9-2.89-1.69-4.48-2.49l-6.57,2.09l26.69-15.43c0.2-1.49,0.2-2.99,0.2-4.48l-28.79,16.63l27.89-25.09
		c-0.3-1.39-0.6-2.79-1-4.08l-29.48,26.49l25.6-35.35c-0.7-1.19-1.39-2.29-2.19-3.39l-26.5,36.54l19.72-44.21
		c-1-0.9-1.99-1.69-2.99-2.39l-20.12,45.11l10.76-50.39c-1.2-0.5-2.39-0.9-3.59-1.29l-10.86,50.88V79.01h-1.89h-1.89v52.68
		L194.87,80.8c-1.2,0.4-2.39,0.8-3.59,1.29l10.76,50.39l-20.12-45.11c-1,0.8-2.09,1.59-2.99,2.39l19.62,44.21l-26.5-36.54
		c-0.8,1.1-1.49,2.19-2.19,3.39l25.7,35.35l-29.48-26.49c-0.4,1.39-0.8,2.69-1,4.08l27.99,25.19l-28.79-16.63
		c0,1.49,0.1,2.99,0.2,4.48l26.69,15.43l-25.3-8.17c0.4,1.49,0.9,2.99,1.49,4.48l22.61,7.37l-20.02-2.29
		c0.8,1.39,1.69,2.79,2.59,4.08l17.03,1.79L175.25,151c1.1,1.19,2.19,2.29,3.39,3.39l11.36-1.19l-9.26,2.99
		c1.2,1,2.49,1.89,3.79,2.69l6.57-2.09l-25.1,14.54l-6.18,3.58c-0.1,0.9-0.1,1.69-0.1,2.59v1.79l33.27-19.22l-31.67,28.48
		c0.4,1.29,0.9,2.59,1.39,3.78l32.87-29.57l-27.79,38.24c0.8,1,1.59,1.99,2.49,2.99l28.29-38.93l-20.52,46
		c1,0.7,2.09,1.39,3.19,2.09l20.82-46.6l-10.86,50.98c1.2,0.4,2.39,0.7,3.59,1l10.86-51.18v52.68h1.89h1.89v-52.68l10.86,51.18
		c1.2-0.3,2.39-0.6,3.59-1l-10.76-50.98l20.72,46.5c1.1-0.6,2.19-1.29,3.19-2.09l-20.52-45.9l28.39,39.03c0.9-1,1.69-1.99,2.49-2.99
		l-27.79-38.24l32.87,29.57c0.5-1.19,1-2.49,1.39-3.78l-31.67-28.48l33.27,19.22v-1.79c0-0.9,0-1.69-0.1-2.59L223.96,156.78z"/>
	<g>
		<path class="st0" d="M520.9,315.2h-10.71v6.16c0,3.93-2.14,6.96-6.78,6.96h-2.23v10.54h7.94v20.45c0,8.48,5.35,13.57,13.92,13.57
			c3.48,0,5.62-0.62,6.7-1.07v-9.83c-0.62,0.17-2.23,0.36-3.66,0.36c-3.39,0-5.18-1.25-5.18-5.09v-18.39h8.83v-10.54h-8.83V315.2z"
			/>
		<path class="st0" d="M480.28,334.84v-6.52h-11.51v43.94h11.86v-20.09c0-9.47,5.26-12.41,11.34-12.41c1.07,0,2.23,0.09,3.57,0.36
			v-11.97c-0.89-0.09-1.79-0.17-2.77-0.17C489.03,327.96,482.96,329.03,480.28,334.84z"/>
		<path class="st0" d="M267.09,361.53c-10.18,0-19.63-7.41-19.63-20.89c0-14.38,9.99-21.16,19.46-21.16
			c10.98,0,15.88,6.7,17.4,12.77l11.6-3.67c-2.5-10.26-11.51-20.98-29-20.98c-16.95,0-32.22,12.86-32.22,33.04
			c0,20.18,14.72,32.95,32.39,32.95c17.76,0,26.86-11.79,29.26-21.52l-11.51-3.48C283.15,354.49,277.89,361.53,267.09,361.53z"/>
		<path class="st0" d="M610.82,327.16c-4.73,0-9.99,2.06-12.67,6.61v-5.45h-11.51v43.93h11.87v-25.27c0-5.09,3.03-9.11,8.21-9.11
			c5.71,0,8.12,3.84,8.12,8.76v25.63h11.87v-27.67C626.7,334.93,621.71,327.16,610.82,327.16z"/>
		<path class="st0" d="M557.81,326.99c-13.12,0-23.03,9.73-23.03,23.31c0,13.48,9.9,23.31,23.03,23.31
			c13.12,0,23.03-9.83,23.03-23.31C580.84,336.72,570.93,326.99,557.81,326.99z M557.81,362.79c-5.8,0-11.15-4.29-11.15-12.5
			c0-8.31,5.35-12.5,11.15-12.5c5.8,0,11.15,4.19,11.15,12.5S563.62,362.79,557.81,362.79z"/>
		<path class="st0" d="M347.19,326.99c-13.12,0-23.03,9.73-23.03,23.31c0,13.48,9.9,23.31,23.03,23.31
			c13.13,0,23.03-9.83,23.03-23.31C370.21,336.72,360.31,326.99,347.19,326.99z M347.19,362.79c-5.8,0-11.15-4.29-11.15-12.5
			c0-8.31,5.35-12.5,11.15-12.5c5.8,0,11.15,4.19,11.15,12.5S352.99,362.79,347.19,362.79z"/>
		<path class="st0" d="M316.07,307.61H304.2v64.64h11.86V307.61z"/>
		<path class="st0" d="M383.28,328.32h-13.03l17.94,43.93h11.85l-5.88-14.47L383.28,328.32z"/>
		<path class="st0" d="M439.5,326.98c-11.24,0-21.59,9.11-21.59,23.12c0,14.82,10.62,23.48,22.67,23.48
			c10.8,0,17.76-6.34,19.98-13.93l-9.9-2.94c-1.43,3.93-4.46,6.7-9.99,6.7c-5.89,0-10.8-4.19-11.06-10h31.41
			c0-0.18,0.17-1.97,0.17-3.67C461.19,335.64,453.07,326.98,439.5,326.98z M429.87,345.28c0.27-4.02,3.65-8.66,9.82-8.66
			c6.78,0,9.64,4.29,9.82,8.66H429.87z"/>
		
			<linearGradient id="SVGID_1_" gradientUnits="userSpaceOnUse" x1="392.8401" y1="-35.657" x2="420.1635" y2="-25.3273" gradientTransform="matrix(1 0 0 -1 0 318.2205)">
			<stop  offset="0" style="stop-color:#FFFFFF;stop-opacity:0"/>
			<stop  offset="0.646" style="stop-color:#FFFFFF"/>
			<stop  offset="1" style="stop-color:#FFFFFF"/>
		</linearGradient>
		<path class="st1" d="M394.16,357.79l5.88,14.47h0.01l17.04-43.93h-12.49L394.16,357.79z"/>
	</g>
	<line class="st2" x1="149.65" y1="263.88" x2="702.9" y2="263.88"/>
</g>
</svg>
