<?xml version="1.0" encoding="utf-8"?>
<!-- Generator: Adobe Illustrator 24.2.1, SVG Export Plug-In . SVG Version: 6.00 Build 0)  -->
<svg version="1.1" id="Layer_1" xmlns="http://www.w3.org/2000/svg" xmlns:xlink="http://www.w3.org/1999/xlink" x="0px" y="0px"
	 viewBox="0 0 283.46 283.46" style="enable-background:new 0 0 283.46 283.46;" xml:space="preserve">
<style type="text/css">
	.st0{fill:#FFFFFF;}
</style>
<g>
	<path class="st0" d="M169.15,230.42h-12.79c-0.31,0-0.55-0.25-0.56-0.56c0-0.11,0-0.21,0.01-0.31c0.24-3.49,0.45-6.99,0.74-10.48
		c0.37-4.49,0.8-8.98,1.2-13.48c0.46-5.1,0.95-10.2,1.36-15.3c0.25-3.07,0.4-6.14,0.56-9.21c0.28-5.2,0.33-10.4,0.13-15.59
		c-0.13-3.55-0.39-7.1-0.69-10.64c-0.37-4.5-1.07-8.95-1.94-13.38c-0.97-4.92-2.25-9.77-3.63-14.59c-1.24-4.33-2.51-8.66-3.66-13.02
		c-1.63-6.15-2.59-12.4-2.85-18.76c-0.34-8.5,0-16.98,1.03-25.42c0.55-4.48,1.32-8.92,2.66-13.25c0.28-0.91,0.63-1.8,0.96-2.7
		c0.09-0.24,0.24-0.45,0.41-0.77c0.24,0.36,0.43,0.61,0.58,0.88c1.25,2.23,2.19,4.6,2.96,7.03c1.82,5.71,3.59,11.44,5.37,17.16
		c2.32,7.47,4.67,14.94,6.52,22.54c1.76,7.24,3.42,14.51,5.14,21.76c1.61,6.79,3.27,13.56,4.87,20.35
		c1.29,5.48,2.23,11.03,2.74,16.63c0.44,4.78,0.6,9.58,0.46,14.39c-0.14,4.65-0.49,9.27-1.07,13.88
		c-0.75,6.03-1.82,12.01-3.16,17.94c-1.82,8.05-4,16-6.54,23.86c-0.06,0.19-0.13,0.38-0.2,0.59
		C169.7,230.24,169.44,230.42,169.15,230.42z"/>
	<path class="st0" d="M126.92,229.84c0.06,0.32-0.19,0.62-0.51,0.62h-0.23c-3.69,0-7.38-0.01-11.06,0.01
		c-0.59,0-0.89-0.17-1.12-0.72c-3.45-8.08-6.46-16.33-8.73-24.82c-1.4-5.23-2.47-10.53-3.24-15.89c-0.94-6.52-1.4-13.08-1.33-19.67
		c0.09-8.89,1.07-17.68,3.21-26.32c1.51-6.12,3.6-12.05,6.17-17.79c3.5-7.82,7.09-15.59,10.7-23.36
		c4.07-8.76,8.17-17.49,12.32-26.21c1.07-2.25,2.37-4.38,3.57-6.57c0.1-0.18,0.24-0.35,0.37-0.52c0.04-0.06,0.13-0.08,0.27-0.17
		c0.19,0.33,0.4,0.63,0.55,0.95c0.96,1.98,1.41,4.11,1.74,6.26c0.71,4.54,0.61,9.1,0.31,13.66c-0.38,5.7-1.27,11.33-2.67,16.87
		c-1.48,5.9-3.5,11.63-5.51,17.36c-2.3,6.56-4.52,13.14-6.2,19.89c-1.2,4.82-2.2,9.67-2.8,14.6c-0.42,3.47-0.85,6.95-1.07,10.45
		c-0.24,3.86-0.33,7.74-0.36,11.61c-0.05,5.97,0.26,11.93,0.73,17.89c0.73,9.38,2.29,18.63,4.12,27.85
		C126.41,227.12,126.66,228.44,126.92,229.84z"/>
	<path class="st0" d="M133.4,230.49c-0.34,0-0.62-0.25-0.67-0.58c-0.25-1.48-0.53-3.01-0.75-4.47c-1.06-7.06-1.87-14.14-2.33-21.27
		c-0.24-3.78-0.46-7.57-0.52-11.36c-0.08-5.73-0.1-11.46,0.02-17.18c0.11-5.33,0.53-10.64,1.15-15.94c0.55-4.67,1.28-9.3,2.25-13.89
		c1.34-6.32,3.15-12.5,5.76-18.41c0.81-1.84,1.78-3.61,2.7-5.4c0.21-0.41,0.56-0.76,0.91-1.23c0.34,0.45,0.68,0.79,0.89,1.2
		c1.02,2.04,2.09,4.06,2.98,6.15c1.81,4.23,3.11,8.64,3.96,13.15c0.55,2.92,0.97,5.86,1.29,8.81c1.17,10.65,1.15,21.34,0.71,32.03
		c-0.41,9.92-1,19.84-1.43,29.76c-0.21,5.01-0.32,10.02-0.4,15.03c-0.01,0.9-0.07,1.93-0.12,2.9c-0.02,0.37-0.32,0.66-0.69,0.66
		C146.4,230.45,136.19,230.52,133.4,230.49z"/>
	<path class="st0" d="M168.73,79.88c0.23,0.31,0.48,0.61,0.69,0.93c3.82,5.78,7.27,11.78,10.46,17.93
		c4.42,8.53,7.95,17.41,10.81,26.57c1.51,4.83,3.16,9.63,4.69,14.45c1.71,5.39,3.1,10.87,3.98,16.46
		c0.89,5.65,1.22,11.33,0.98,17.05c-0.38,8.86-2.08,17.47-4.62,25.94c-1.97,6.56-4.48,12.93-6.98,19.3
		c-1.46,3.73-2.88,7.47-4.33,11.21c-0.29,0.75-0.3,0.74-1.08,0.74c-2.73,0-5.47,0-8.2,0c-0.03,0-0.05,0-0.08,0
		c-0.39,0-0.67-0.38-0.55-0.75c0.19-0.59,0.37-1.16,0.55-1.7c2.82-8.23,5.29-16.57,7.6-24.96c1.39-5.07,2.61-10.17,3.49-15.35
		c1.29-7.56,1.84-15.16,1.36-22.83c-0.44-6.97-1.86-13.75-3.6-20.5c-2.46-9.55-4.81-19.14-7.19-28.71
		c-1.89-7.59-3.78-15.18-5.63-22.79c-0.97-3.97-1.84-7.96-2.41-12.01c-0.04-0.31-0.06-0.62-0.09-0.93
		C168.66,79.91,168.65,79.91,168.73,79.88z"/>
	<path class="st0" d="M109.96,229.93c0.11,0.26-0.08,0.54-0.36,0.53c-0.01,0-0.02,0-0.03,0c-2.47,0-4.94-0.01-7.4,0.01
		c-0.49,0-0.75-0.15-0.97-0.6c-5.02-10.23-9.49-20.68-12.69-31.64c-1.6-5.48-2.88-11.03-3.82-16.66
		c-1.26-7.58-1.88-15.22-1.55-22.91c0.34-7.9,1.8-15.58,4.68-22.97c2.06-5.3,4.58-10.38,7.34-15.35
		c6.31-11.33,13.41-22.14,21.38-32.37c0.98-1.25,2.05-2.43,3.09-3.64c0.19-0.22,0.41-0.4,0.64-0.64c0.29,0.45,0.19,0.87,0.16,1.28
		c-0.15,2.14-0.74,4.17-1.43,6.18c-1.58,4.62-3.56,9.09-5.59,13.52c-3.11,6.8-6.32,13.56-9.38,20.38
		c-2.77,6.18-5.02,12.56-6.54,19.17c-0.92,4.01-1.57,8.07-1.99,12.16c-0.46,4.47-0.65,8.94-0.59,13.43
		c0.05,3.69,0.28,7.37,0.67,11.04c1.22,11.59,4,22.82,8.12,33.71c1.74,4.61,3.71,9.14,5.57,13.71
		C109.49,228.8,109.71,229.35,109.96,229.93z"/>
</g>
</svg>
